<svg width="77" height="88" viewBox="0 0 77 88" fill="none" xmlns="http://www.w3.org/2000/svg">
<path fill-rule="evenodd" clip-rule="evenodd" d="M52.8344 63.525L39.0844 22.275C38.8452 21.5635 38.3797 20.9499 37.759 20.5278C37.1383 20.1057 36.3965 19.8984 35.6469 19.9375H19.3531C18.6325 19.9357 17.9295 20.1604 17.3435 20.5798C16.7575 20.9993 16.3181 21.5923 16.0875 22.275L2.16562 63.525C1.98509 64.0569 1.93765 64.625 2.02744 65.1794C2.11724 65.7339 2.34154 66.2579 2.68073 66.7056C3.01991 67.1534 3.46364 67.5111 3.9731 67.7477C4.48256 67.9842 5.04222 68.0923 5.60312 68.0625H15.675C16.3898 68.0572 17.0851 67.8292 17.6643 67.4103C18.2434 66.9913 18.6775 66.4022 18.9062 65.725L21.0031 59.6063L31.3156 67.4094C31.9149 67.8434 32.6382 68.0725 33.3781 68.0625H49.4656C50.0208 68.0807 50.5722 67.9641 51.0725 67.7226C51.5728 67.4811 52.0071 67.122 52.3383 66.676C52.6694 66.2299 52.8875 65.7103 52.9739 65.1615C53.0603 64.6128 53.0124 64.0512 52.8344 63.525ZM33.5156 65.7938C33.2658 65.794 33.0233 65.7091 32.8281 65.5532L13.4062 51.15L13.0969 50.9094H23.4094L23.6844 50.1875L27.1219 41.4907L34.8219 64.2813C34.8837 64.4724 34.8953 64.6762 34.8555 64.8731C34.8157 65.0699 34.7258 65.2532 34.5945 65.4052C34.4632 65.5572 34.295 65.6729 34.106 65.7409C33.917 65.809 33.7137 65.8272 33.5156 65.7938ZM49.5687 65.7938H36.7812C37.038 65.0593 37.038 64.2595 36.7812 63.525L22.8594 22.275H35.6469C35.8896 22.2763 36.126 22.353 36.3231 22.4947C36.5202 22.6364 36.6683 22.836 36.7469 23.0657L50.6687 64.3157C50.7158 64.4869 50.7232 64.6667 50.6904 64.8413C50.6576 65.0158 50.5854 65.1806 50.4794 65.3231C50.3733 65.4656 50.2362 65.5821 50.0784 65.6636C49.9206 65.7452 49.7463 65.7897 49.5687 65.7938Z" fill="#665900"/>
<rect y="-10.421" width="77" height="108" fill="url(#paint0_linear_109_20)"/>
<defs>
<linearGradient id="paint0_linear_109_20" x1="85" y1="43.579" x2="0" y2="43.579" gradientUnits="userSpaceOnUse">
<stop stop-color="#FFE641" stop-opacity="0"/>
<stop offset="1" stop-color="#FFE641"/>
</linearGradient>
</defs>
</svg>
