<svg width="77" height="88" viewBox="0 0 77 88" fill="none" xmlns="http://www.w3.org/2000/svg">
<g clip-path="url(#clip0_109_41)">
<path d="M0 16.5H55V71.5H0V16.5Z" fill="#665900"/>
<path d="M9.80268 51.6388C9.41381 51.6388 9.08331 51.5092 8.81117 51.2501C8.53904 50.9843 8.4029 50.6686 8.40276 50.3031C8.40276 49.931 8.53882 49.612 8.81096 49.3462C9.08324 49.0803 9.41381 48.9474 9.80268 48.9474C10.198 48.9474 10.5318 49.0803 10.8041 49.3462C11.0828 49.612 11.2222 49.931 11.2222 50.3031C11.2222 50.6685 11.0828 50.9841 10.8041 51.2501C10.5319 51.5094 10.1982 51.639 9.80289 51.639M25.3492 51.4198H22.8216L16.1616 40.9127C15.9955 40.6513 15.8555 40.3743 15.7435 40.0855H15.6851L15.6952 40.1511L15.7044 40.2263L15.713 40.3107L15.7212 40.4044L15.7317 40.5625L15.7407 40.7412L15.7483 40.9411L15.7543 41.1619L15.7586 41.4036L15.7607 41.5766L15.7629 42.0492V51.4194H13.5268V37.125H16.2198L22.6559 47.3823L22.8149 47.6334L22.9174 47.7984L23.005 47.9435L23.0781 48.0687L23.1189 48.1413L23.1533 48.2049L23.1812 48.2597H23.2199L23.2126 48.2146L23.1988 48.1179L23.1859 48.012L23.1746 47.8966L23.1694 47.8354L23.1595 47.7061L23.1509 47.5675L23.1434 47.4192L23.1344 47.1799L23.1279 46.9195L23.1241 46.6381L23.1228 46.3358V37.125H25.349L25.3492 51.4198ZM36.2386 51.4198H28.4122V37.125H35.9275V39.1387H30.7261V43.1857H35.5193V45.1894H30.7261V49.416H36.2386V51.4198ZM47.3614 39.1389H43.3555V51.4198H41.0416V39.1389H37.0455V37.125H47.361L47.3614 39.1389Z" fill="white"/>
</g>
<rect y="-10" width="77" height="108" fill="url(#paint0_linear_109_41)"/>
<defs>
<linearGradient id="paint0_linear_109_41" x1="85" y1="44" x2="0" y2="44" gradientUnits="userSpaceOnUse">
<stop stop-color="#FFE641" stop-opacity="0"/>
<stop offset="1" stop-color="#FFE641"/>
</linearGradient>
<clipPath id="clip0_109_41">
<rect width="55" height="55" fill="white" transform="translate(0 16.5)"/>
</clipPath>
</defs>
</svg>
