<svg width="77" height="88" viewBox="0 0 77 88" fill="none" xmlns="http://www.w3.org/2000/svg">
<path d="M3.4375 19.9375V68.0625H51.5625V19.9375H3.4375ZM29.6278 57.4698C29.6278 62.1534 26.8778 64.2916 22.8714 64.2916C19.2517 64.2916 17.1566 62.4233 16.0823 60.1562L19.7673 57.9322C20.4772 59.1886 21.1217 60.2525 22.6789 60.2525C24.1605 60.2525 25.1058 59.6716 25.1058 57.4062V42.0338H29.6278V57.4698ZM40.3253 64.2916C36.1247 64.2916 33.4073 62.2944 32.0856 59.6716L35.7706 57.5455C36.7383 59.125 38.005 60.2955 40.2291 60.2955C42.0973 60.2955 43.3022 59.3605 43.3022 58.0611C43.3022 56.5142 42.0767 55.9659 40.0039 55.0533L38.8764 54.5703C35.6108 53.185 33.452 51.4336 33.452 47.7486C33.452 44.3541 36.0405 41.7759 40.0692 41.7759C42.9481 41.7759 45.0106 42.7745 46.4939 45.3956L42.9705 47.6523C42.197 46.267 41.3583 45.7188 40.0589 45.7188C38.7389 45.7188 37.9002 46.5575 37.9002 47.6523C37.9002 49.0067 38.7389 49.5533 40.6828 50.4023L41.8103 50.8853C45.6569 52.5284 47.8156 54.2163 47.8156 57.9958C47.8156 62.0572 44.6136 64.2898 40.327 64.2898L40.3253 64.2916Z" fill="#665900"/>
<rect y="-10.421" width="77" height="108" fill="url(#paint0_linear_109_27)"/>
<defs>
<linearGradient id="paint0_linear_109_27" x1="85" y1="43.579" x2="0" y2="43.579" gradientUnits="userSpaceOnUse">
<stop stop-color="#FFE641" stop-opacity="0"/>
<stop offset="1" stop-color="#FFE641"/>
</linearGradient>
</defs>
</svg>
