<svg width="24" height="24" viewBox="0 0 24 24" fill="none" xmlns="http://www.w3.org/2000/svg">
    <rect width="24" height="24" fill="#0033E5" />
    <g clip-path="url(#clip0_111_1095)">
        <rect x="3" y="6" width="3" height="3" fill="#F0F7FF" />
        <rect x="3" y="9" width="3" height="1.5" fill="#F0F7FF" />
        <rect x="6" y="6" width="3" height="3" fill="#F0F7FF" />
        <rect x="6" y="12" width="3" height="3" fill="#F0F7FF" />
        <rect x="6" y="21.0078" width="3" height="3" transform="rotate(-90 6 21.0078)"
            fill="#F0F7FF" />
        <rect x="9" y="6" width="3" height="3" fill="#F0F7FF" />
        <rect x="9" y="9" width="3" height="3" fill="#F0F7FF" />
        <rect x="9" y="12" width="3" height="3" fill="#F0F7FF" />
        <rect x="9" y="15" width="3" height="3" fill="#F0F7FF" />
        <rect x="3" y="21" width="3" height="3" transform="rotate(-90 3 21)" fill="#F0F7FF" />
        <rect x="3" y="18" width="1.5" height="3" transform="rotate(-90 3 18)" fill="#F0F7FF" />
        <rect x="9" y="21" width="3" height="3" transform="rotate(-90 9 21)" fill="#F0F7FF" />
    </g>
    <g clip-path="url(#clip1_111_1095)">
        <rect x="15" y="9" width="3" height="3" fill="#F0F7FF" />
        <rect x="15" y="15" width="3" height="3" fill="#F0F7FF" />
        <rect x="15" y="21" width="3" height="3" transform="rotate(-90 15 21)" fill="#F0F7FF" />
    </g>
    <g clip-path="url(#clip2_111_1095)">
        <rect x="21" y="3" width="3" height="3" fill="#F0F7FF" />
        <rect x="15" y="3" width="3" height="3" fill="#F0F7FF" />
        <rect x="21" y="9" width="3" height="3" fill="#F0F7FF" />
        <rect x="18" y="3" width="3" height="3" fill="#F0F7FF" />
        <rect x="21" y="6" width="3" height="3" fill="#F0F7FF" />
    </g>
    <defs>
        <clipPath id="clip0_111_1095">
            <rect x="3" y="6" width="9" height="15.0166" rx="1" fill="white" />
        </clipPath>
        <clipPath id="clip1_111_1095">
            <rect x="15" y="9" width="3" height="12" rx="1" fill="white" />
        </clipPath>
        <clipPath id="clip2_111_1095">
            <rect x="15" y="3" width="9" height="9" rx="1" fill="white" />
        </clipPath>
    </defs>
</svg>