<svg width="77" height="88" viewBox="0 0 77 88" fill="none" xmlns="http://www.w3.org/2000/svg">
<path d="M38.5115 18.8706C36.4944 18.8895 34.4887 19.1746 32.5463 19.7185L32.4088 19.7598C31.1857 19.5501 29.9484 19.4344 28.7077 19.4137C26.1571 19.3702 23.964 19.9706 22.1994 20.9721C20.4577 20.3854 16.846 19.3748 13.0396 19.5764C10.3881 19.7162 7.49605 20.4977 5.35334 22.6931C3.21521 24.8885 2.08542 28.2848 2.32375 32.9071C2.38792 34.1835 2.76146 36.2621 3.3848 38.9571C4.00355 41.6498 4.87896 44.8008 5.9675 47.6769C7.05605 50.5529 8.25 53.1402 10.1154 54.8956C11.0458 55.7756 12.3269 56.5158 13.8371 56.4539C14.8981 56.4127 15.8583 55.9612 16.6856 55.2943C17.089 55.81 17.5198 56.0346 17.9117 56.2431C18.4044 56.5044 18.8856 56.6831 19.3829 56.8023C20.76 57.1554 22.1943 57.2263 23.5996 57.0108C24.2115 56.9123 24.8554 56.7198 25.4971 56.4448C25.52 57.1369 25.5475 57.8152 25.5773 58.5027C25.6644 60.6798 25.7217 62.6896 26.3954 64.4519C26.5031 64.7406 26.7988 66.2233 27.9698 67.5318C29.1385 68.8427 31.4302 69.6585 34.0381 69.1177C35.8783 68.735 38.2204 68.0452 39.7742 65.9002C41.3096 63.7781 42.004 60.7348 42.1415 55.7962C42.1758 55.5304 42.2171 55.3035 42.2606 55.0904L42.6273 55.1225H42.6685C44.6325 55.2096 46.7638 54.9391 48.5444 54.1371C50.121 53.4266 51.3127 52.7116 52.1813 51.4398C52.399 51.1258 52.6373 50.7454 52.7015 50.0877C52.7656 49.4346 52.3806 48.4079 51.7367 47.9358C50.4465 46.9871 49.6375 47.3469 48.769 47.5233C47.9134 47.7066 47.0456 47.8082 46.1656 47.8281C48.6704 43.7398 50.4648 39.3948 51.4892 35.5494C52.0942 33.2806 52.4356 31.1883 52.4631 29.3596C52.4906 27.5308 52.3371 25.9106 51.2073 24.5081C47.6758 20.131 42.7098 18.921 38.869 18.8798C38.7498 18.8767 38.6306 18.876 38.5115 18.8775V18.8706ZM38.4106 20.2158C42.0429 20.1814 46.6858 21.1714 50.0179 25.3033C50.7673 26.2314 50.9896 27.5881 50.9644 29.261C50.9369 30.9316 50.6183 32.93 50.0362 35.1208C48.9065 39.365 46.7706 44.3104 43.7617 48.7516C43.8685 48.8257 43.9839 48.8865 44.1054 48.9327C44.7333 49.1848 46.1633 49.4002 49.021 48.8319C49.7383 48.6829 50.2654 48.5844 50.8108 48.9877C50.9413 49.096 51.045 49.233 51.1138 49.3881C51.1826 49.5431 51.2146 49.712 51.2073 49.8814C51.177 50.1374 51.0798 50.3808 50.9254 50.5873C50.3754 51.3916 49.2846 52.1548 47.8867 52.7827C46.6515 53.3419 44.8777 53.6329 43.3056 53.6512C42.5173 53.6581 41.7908 53.5985 41.1744 53.4129L41.1331 53.3991C40.8948 55.6244 40.3471 60.0221 39.9919 62.0273C39.7054 63.6452 39.2058 64.9308 38.2502 65.8933C37.2969 66.8558 35.9494 67.4356 34.1344 67.8137C31.8863 68.2812 30.2477 67.7771 29.1913 66.9131C28.1371 66.0537 27.6535 64.9102 27.3625 64.2089C27.1631 63.7277 27.06 63.1021 26.9592 62.2656C26.8483 61.2641 26.7741 60.259 26.7369 59.2521C26.6711 57.4868 26.6497 55.7201 26.6727 53.9537C25.7331 54.7856 24.5644 55.3402 23.3108 55.5487C21.8213 55.7939 20.4875 55.5533 19.6923 55.3608C19.3024 55.2647 18.9255 55.1224 18.5694 54.9369C18.1981 54.7466 17.8475 54.5312 17.6138 54.105C17.476 53.8617 17.432 53.5764 17.49 53.3029C17.5651 53.025 17.7313 52.7805 17.9621 52.6085C18.3929 52.2694 18.959 52.0814 19.8138 51.9073C21.3721 51.5979 21.9152 51.3848 22.2452 51.1304C22.5271 50.9127 22.8456 50.4727 23.4094 49.8241L23.4025 49.7394C22.3978 49.7099 21.4129 49.4529 20.5219 48.9877C20.1988 49.3177 18.5396 51.0204 16.516 53.3808C15.6658 54.3685 14.7263 54.9346 13.734 54.9758C12.7417 55.0171 11.8456 54.5312 11.0848 53.8162C9.56084 52.3816 8.34625 49.9135 7.2875 47.1246C6.23334 44.3333 5.37167 41.2258 4.76209 38.5789C4.14792 35.9321 3.78584 33.7985 3.73542 32.7696C3.50625 28.3948 4.56042 25.4477 6.37084 23.5891C8.18125 21.7306 10.6608 21.0248 13.0808 20.8919C17.4213 20.6489 21.544 22.1179 22.3781 22.4341C23.9846 21.3754 26.054 20.7154 28.6413 20.7566C29.8676 20.7737 31.0882 20.9274 32.2804 21.215L32.324 21.1966C32.8495 21.0179 33.3827 20.8682 33.9235 20.7475C35.3959 20.4152 36.8991 20.2385 38.4083 20.2204L38.4106 20.2158ZM38.7383 21.6229H38.4244C37.1845 21.6396 35.949 21.7747 34.7348 22.0262C37.145 23.076 39.2627 24.6981 40.904 26.7516C41.8983 27.9802 42.723 29.3368 43.356 30.785C43.5944 31.3396 43.7548 31.8094 43.8442 32.1714C43.89 32.3548 43.9221 32.5083 43.9313 32.6687C43.9397 32.7703 43.9312 32.8725 43.906 32.9712L43.8923 32.9987C43.9588 34.8389 43.489 36.0856 43.4317 37.841C43.3881 39.1152 43.7227 40.6116 43.8052 42.241C43.8831 43.7764 43.6929 45.4608 42.6663 47.1154C42.7518 47.2162 42.8343 47.3171 42.9137 47.4179C45.6294 43.27 47.5888 38.6775 48.6315 34.7656C49.1883 32.6573 49.4862 30.7483 49.5115 29.2358C49.5344 27.7233 49.2433 26.6256 48.8721 26.1696C45.9663 22.5648 42.036 21.6481 38.7383 21.6229ZM28.3685 22.1591C25.8088 22.1637 23.9708 22.9154 22.5798 24.0383C21.1429 25.2002 20.1804 26.7883 19.5479 28.4177C18.9357 30.046 18.5614 31.754 18.4365 33.4891L18.4663 33.4731C19.2385 33.0514 20.2538 32.6321 21.34 32.3891C22.4285 32.1462 23.5996 32.0706 24.6606 32.4694C25.7217 32.8681 26.5994 33.8077 26.9179 35.2331C28.4419 42.076 26.4435 44.6198 25.7056 46.5379C25.4288 47.234 25.1901 47.9447 24.9906 48.6669C25.0823 48.6409 25.1747 48.6225 25.2679 48.6119C25.6705 48.5901 26.0721 48.6688 26.4367 48.841C27.1792 49.1389 27.6879 49.7623 27.9629 50.4773C28.0347 50.6667 28.0859 50.8653 28.1165 51.0731C28.147 51.1602 28.1615 51.2496 28.16 51.3412C28.0776 53.9578 28.0868 56.5765 28.1875 59.1925C28.2379 60.3246 28.3113 61.3191 28.4052 62.1052C28.4969 62.8889 28.6298 63.4848 28.7146 63.6864C28.9896 64.3602 29.3952 65.2402 30.1285 65.8383C30.8619 66.4364 31.9092 66.8329 33.8273 66.4341C35.491 66.0881 36.5177 65.6091 37.2052 64.9148C37.8881 64.225 38.2983 63.2648 38.5596 61.7912C38.9515 59.5844 39.7398 53.1883 39.8338 51.9829C39.7925 51.0777 39.93 50.3787 40.2279 49.8471C40.5373 49.3016 41.014 48.9671 41.4242 48.786C41.6304 48.6944 41.8229 48.6348 41.981 48.5912C41.8125 48.3581 41.6368 48.1304 41.454 47.9083C40.8614 47.2151 40.3755 46.4373 40.0125 45.6006C39.8376 45.2564 39.6519 44.9179 39.4556 44.5854C39.1692 44.0812 38.8048 43.451 38.4244 42.7429C37.6613 41.3244 36.8317 39.6056 36.4008 37.9304C35.9723 36.2598 35.9081 34.5296 37.0081 33.3081C37.9844 32.2241 39.694 31.775 42.2629 32.0271C42.1873 31.8071 42.1415 31.6237 42.0131 31.3304C41.4334 29.9989 40.6756 28.7523 39.7604 27.6248C37.5833 24.9252 34.061 22.2485 28.616 22.1614H28.3685V22.1591ZM13.986 22.2669C13.711 22.2669 13.436 22.2745 13.161 22.2898C10.9748 22.4112 8.90771 23.0277 7.42959 24.5494C5.94688 26.0687 4.97292 28.5621 5.18375 32.6916C5.2273 33.4708 5.57792 35.6616 6.17834 38.2604C6.77875 40.8637 7.63125 43.9231 8.65334 46.625C9.67542 49.3291 10.9175 51.6827 12.0954 52.7964C12.689 53.3533 13.2046 53.5779 13.6721 53.5596C14.1419 53.5366 14.7056 53.2754 15.3977 52.471C16.6581 50.9961 17.965 49.5616 19.3165 48.1696C18.3616 47.3688 17.6265 46.338 17.1806 45.1744C16.7384 44.0218 16.6041 42.7738 16.791 41.5535C17.0133 39.9998 17.0431 38.5469 17.0179 37.401C16.9904 36.2827 16.9079 35.5402 16.9079 35.075V35.0108C16.9056 32.5888 17.3395 30.1862 18.189 27.9181C18.794 26.3552 19.6969 24.7671 21.0513 23.4814C19.7221 23.0575 17.3617 22.4112 14.8065 22.2898C14.5317 22.2751 14.2566 22.2674 13.9815 22.2669H13.986ZM40.8306 33.3631C39.3617 33.3814 38.5367 33.7504 38.1035 34.2316C37.4894 34.9146 37.4321 36.1108 37.8125 37.5866C38.1929 39.0625 38.9744 40.7148 39.7123 42.0852C40.079 42.7727 40.4365 43.3914 40.7252 43.891C41.0163 44.3952 41.2294 44.7527 41.3577 45.0598C41.4799 45.3363 41.6083 45.5891 41.7427 45.8183C42.311 44.6519 42.4142 43.5083 42.3546 42.3144C42.279 40.8385 41.926 39.3283 41.9788 37.7998C42.036 36.0123 42.4004 34.8458 42.4325 33.4639C41.901 33.3992 41.3661 33.3655 40.8306 33.3631ZM23.0015 33.6037C22.5525 33.6071 22.1053 33.6594 21.6677 33.7596C20.7977 33.9647 19.958 34.2821 19.1698 34.7037C18.9055 34.8412 18.6534 35.0009 18.4135 35.1827L18.3677 35.2239C18.3815 35.531 18.4433 36.2758 18.4708 37.3689C18.4938 38.5675 18.4663 40.096 18.2279 41.746C17.71 45.3394 20.3958 48.3139 23.5538 48.3185C23.7371 47.5806 24.0419 46.8335 24.3444 46.0452C25.2244 43.7466 26.9546 42.0714 25.4971 35.5287C25.2588 34.4585 24.7867 34.0254 24.1358 33.7802C23.7714 33.6536 23.3871 33.5939 23.0015 33.6037ZM40.1431 34.0323H40.2531C40.3967 34.0369 40.5266 34.0521 40.6427 34.0781C40.7481 34.0993 40.8489 34.1389 40.9406 34.195C40.9824 34.2196 41.0184 34.2527 41.0465 34.2922C41.0745 34.3317 41.0939 34.3766 41.1033 34.4241V34.4425C41.1093 34.5432 41.082 34.6431 41.0254 34.7266C40.9615 34.8422 40.8812 34.9479 40.7871 35.0406C40.565 35.2763 40.2722 35.4332 39.9529 35.4875C39.64 35.5245 39.3242 35.4472 39.0638 35.2698C38.9589 35.2005 38.8641 35.1173 38.7819 35.0223C38.7124 34.9481 38.6648 34.8561 38.6444 34.7564C38.6394 34.7074 38.645 34.6579 38.6608 34.6113C38.6766 34.5646 38.7023 34.5219 38.736 34.486C38.8093 34.4091 38.8954 34.3455 38.9904 34.2981C39.3534 34.1315 39.7462 34.0395 40.1454 34.0277L40.1431 34.0323ZM23.2123 34.3852C23.3269 34.3852 23.4468 34.3944 23.5721 34.4127C23.9021 34.4585 24.1977 34.5433 24.4223 34.6694C24.5323 34.7259 24.6285 34.8 24.711 34.8916C24.7538 34.9421 24.7859 34.9978 24.8073 35.0589C24.8287 35.12 24.8356 35.1835 24.8279 35.2491C24.8071 35.3707 24.7504 35.4832 24.6652 35.5723C24.5766 35.679 24.4722 35.7717 24.3558 35.8473C24.0712 36.0411 23.726 36.125 23.3842 36.0833C23.0374 36.0273 22.7186 35.8591 22.4767 35.6044C22.3761 35.5018 22.2898 35.3862 22.22 35.2606C22.1486 35.1507 22.1171 35.0197 22.1306 34.8894C22.1627 34.6602 22.3575 34.5456 22.5431 34.4769C22.7577 34.4088 22.983 34.3808 23.2077 34.3944L23.2123 34.3852ZM42.829 49.8127H42.8221C42.5035 49.9273 42.2423 49.9731 42.02 50.0648C41.7986 50.1469 41.615 50.3076 41.5044 50.5162C41.3669 50.7569 41.2523 51.1854 41.2867 51.9141C41.3854 51.9793 41.4936 52.0288 41.6075 52.0608C41.9765 52.1708 42.5975 52.2441 43.2919 52.2327C44.6715 52.2166 46.3719 51.905 47.2748 51.4971C48.015 51.1625 48.7025 50.7271 49.3167 50.2046C46.2985 50.8096 44.5958 50.6491 43.5485 50.2298C43.2902 50.1244 43.048 49.9855 42.829 49.8127ZM25.4398 50.0075H25.394C25.2794 50.0166 25.1121 50.0533 24.7913 50.4016C24.035 51.2221 23.7738 51.7354 23.1504 52.2166C22.5317 52.6979 21.7227 52.9523 20.1094 53.2731C19.5983 53.3739 19.3073 53.4862 19.1102 53.5756C19.1744 53.626 19.1675 53.6398 19.2615 53.6879C19.4975 53.8139 19.8023 53.9239 20.0452 53.9858C20.7396 54.1531 21.8785 54.3502 23.0679 54.1531C24.2573 53.956 25.4925 53.4037 26.5467 51.9691C26.73 51.7216 26.7483 51.355 26.5994 50.9608C26.4458 50.5712 26.1158 50.2321 25.8821 50.1358C25.7426 50.0701 25.5931 50.0282 25.4398 50.0121V50.0075Z" fill="#665900"/>
<rect y="-10.421" width="77" height="108" fill="url(#paint0_linear_109_13)"/>
<defs>
<linearGradient id="paint0_linear_109_13" x1="85" y1="43.579" x2="0" y2="43.579" gradientUnits="userSpaceOnUse">
<stop stop-color="#FFE641" stop-opacity="0"/>
<stop offset="1" stop-color="#FFE641"/>
</linearGradient>
</defs>
</svg>
