<svg width="77" height="88" viewBox="0 0 77 88" fill="none" xmlns="http://www.w3.org/2000/svg">
<g clip-path="url(#clip0_109_49)">
<mask id="mask0_109_49" style="mask-type:luminance" maskUnits="userSpaceOnUse" x="0" y="16" width="55" height="56">
<path d="M0 16.5H55V71.5H0V16.5Z" fill="white"/>
</mask>
<g mask="url(#mask0_109_49)">
<path d="M27.3029 16.5C13.3375 16.5 14.2083 22.5867 14.2083 22.5867L14.2244 28.8933H27.5481V30.7862H8.9375C8.9375 30.7862 0 29.7665 0 43.929C0 58.0915 7.79854 57.5873 7.79854 57.5873H12.4506V51.0171C12.4506 51.0171 12.2008 43.1796 20.1277 43.1796H33.3415C33.3415 43.1796 40.7665 43.2987 40.7665 35.9654V23.8379C40.7665 23.8379 41.894 16.5 27.3029 16.5ZM19.9558 20.7396C21.2804 20.7396 22.3529 21.8167 22.3529 23.1504C22.3529 24.4819 21.2804 25.559 19.9558 25.559C18.6312 25.559 17.5587 24.4819 17.5587 23.1504C17.5587 21.8167 18.629 20.7396 19.9558 20.7396Z" fill="#665900"/>
<path d="M27.6994 71.5C41.6602 71.5 40.7894 65.4134 40.7894 65.4134L40.7733 59.1067H27.4496V57.2138H46.0648C46.0648 57.2138 55.0023 58.2336 55.0023 44.0711C55.0023 29.9086 47.2015 30.4127 47.2015 30.4127H42.5494V36.983C42.5494 36.983 42.7992 44.8205 34.8723 44.8205H21.6608C21.6608 44.8205 14.2358 44.7013 14.2358 52.0346V64.1621C14.2358 64.1621 13.1083 71.5 27.6994 71.5ZM35.0465 67.2605C33.7196 67.2605 32.6494 66.1834 32.6494 64.8496C32.6494 63.5182 33.7196 62.4411 35.0465 62.4411C36.371 62.4411 37.4435 63.5182 37.4435 64.8496C37.4435 66.1834 36.371 67.2605 35.0465 67.2605Z" fill="#665900"/>
</g>
</g>
<rect y="-18" width="77" height="124.119" fill="url(#paint0_linear_109_49)"/>
<defs>
<linearGradient id="paint0_linear_109_49" x1="85" y1="44.0597" x2="0" y2="44.0597" gradientUnits="userSpaceOnUse">
<stop stop-color="#FFE641" stop-opacity="0"/>
<stop offset="1" stop-color="#FFE641"/>
</linearGradient>
<clipPath id="clip0_109_49">
<rect width="55" height="55" fill="white" transform="translate(0 16.5)"/>
</clipPath>
</defs>
</svg>
