<svg width="77" height="88" viewBox="0 0 77 88" fill="none" xmlns="http://www.w3.org/2000/svg">
<path d="M27.5 39.6687C29.8604 39.6687 31.7854 41.5937 31.7854 44C31.7854 46.2916 29.8604 48.2396 27.5 48.2396C25.1396 48.2396 23.2146 46.2916 23.2146 44C23.2146 41.5937 25.1396 39.6687 27.5 39.6687ZM16.8896 62.3333C18.3333 63.2041 21.4958 61.875 25.1396 58.4375C23.9479 57.0854 22.7792 55.6187 21.6792 54.0833C19.8326 53.9053 17.9967 53.6299 16.1792 53.2583C15.0104 58.1625 15.4458 61.5312 16.8896 62.3333ZM18.5167 49.1791L17.8521 48.0104C17.6 48.675 17.3479 49.3396 17.1875 49.9812C17.8063 50.1187 18.4938 50.2333 19.2042 50.3479L18.5167 49.1791ZM33.5042 47.4375L35.3604 44L33.5042 40.5625C32.8167 39.3479 32.0833 38.2708 31.4188 37.1937C30.1813 37.125 28.875 37.125 27.5 37.125C26.125 37.125 24.8188 37.125 23.5813 37.1937C22.9167 38.2708 22.1833 39.3479 21.4958 40.5625L19.6396 44L21.4958 47.4375C22.1833 48.6521 22.9167 49.7291 23.5813 50.8062C24.8188 50.875 26.125 50.875 27.5 50.875C28.875 50.875 30.1813 50.875 31.4188 50.8062C32.0833 49.7291 32.8167 48.6521 33.5042 47.4375ZM27.5 32.0375C27.0646 32.5416 26.6063 33.0687 26.1479 33.6875H28.8521C28.3938 33.0687 27.9354 32.5416 27.5 32.0375ZM27.5 55.9625C27.9354 55.4583 28.3938 54.9312 28.8521 54.3125H26.1479C26.6063 54.9312 27.0646 55.4583 27.5 55.9625ZM38.0875 25.6666C36.6667 24.7958 33.5042 26.125 29.8604 29.5625C31.0521 30.9146 32.2208 32.3812 33.3208 33.9166C35.2 34.1 37.0563 34.375 38.8208 34.7416C39.9896 29.8375 39.5542 26.4687 38.0875 25.6666ZM36.4833 38.8208L37.1479 39.9896C37.4 39.325 37.6521 38.6604 37.8125 38.0187C37.1938 37.8812 36.5063 37.7666 35.7958 37.6521L36.4833 38.8208ZM39.8063 22.6646C43.175 24.5896 43.5417 29.6541 42.1208 35.5666C47.9417 37.2854 52.1354 40.1271 52.1354 44C52.1354 47.8729 47.9417 50.7146 42.1208 52.4333C43.5417 58.3458 43.175 63.4104 39.8063 65.3354C36.4604 67.2604 31.9 65.0604 27.5 60.8666C23.1 65.0604 18.5396 67.2604 15.1708 65.3354C11.825 63.4104 11.4583 58.3458 12.8792 52.4333C7.05834 50.7146 2.86459 47.8729 2.86459 44C2.86459 40.1271 7.05834 37.2854 12.8792 35.5666C11.4583 29.6541 11.825 24.5896 15.1708 22.6646C18.5396 20.7396 23.1 22.9396 27.5 27.1333C31.9 22.9396 36.4604 20.7396 39.8063 22.6646ZM39.1417 44C39.9208 45.7187 40.6083 47.4375 41.1813 49.1791C45.9938 47.7354 48.6979 45.6729 48.6979 44C48.6979 42.3271 45.9938 40.2646 41.1813 38.8208C40.6083 40.5625 39.9208 42.2812 39.1417 44ZM15.8583 44C15.0792 42.2812 14.3917 40.5625 13.8188 38.8208C9.00626 40.2646 6.30209 42.3271 6.30209 44C6.30209 45.6729 9.00626 47.7354 13.8188 49.1791C14.3917 47.4375 15.0792 45.7187 15.8583 44ZM36.4833 49.1791L35.7958 50.3479C36.5063 50.2333 37.1938 50.1187 37.8125 49.9812C37.6521 49.3396 37.4 48.675 37.1479 48.0104L36.4833 49.1791ZM29.8604 58.4375C33.5042 61.875 36.6667 63.2041 38.0875 62.3333C39.5542 61.5312 39.9896 58.1625 38.8208 53.2583C37.0563 53.625 35.2 53.9 33.3208 54.0833C32.2208 55.6187 31.0521 57.0854 29.8604 58.4375ZM18.5167 38.8208L19.2042 37.6521C18.4938 37.7666 17.8063 37.8812 17.1875 38.0187C17.3479 38.6604 17.6 39.325 17.8521 39.9896L18.5167 38.8208ZM25.1396 29.5625C21.4958 26.125 18.3333 24.7958 16.8896 25.6666C15.4458 26.4687 15.0104 29.8375 16.1792 34.7416C17.9967 34.37 19.8326 34.0947 21.6792 33.9166C22.7792 32.3812 23.9479 30.9146 25.1396 29.5625Z" fill="#665900"/>
<rect y="-10" width="77" height="108" fill="url(#paint0_linear_109_80)"/>
<defs>
<linearGradient id="paint0_linear_109_80" x1="85" y1="44" x2="0" y2="44" gradientUnits="userSpaceOnUse">
<stop stop-color="#FFE641" stop-opacity="0"/>
<stop offset="1" stop-color="#FFE641"/>
</linearGradient>
</defs>
</svg>
