<svg width="77" height="88" viewBox="0 0 77 88" fill="none" xmlns="http://www.w3.org/2000/svg">
<g clip-path="url(#clip0_109_62)">
<path d="M22.7455 16.5V16.5009C22.5625 16.4759 19.6062 17.5407 17.7001 18.3154C15.1272 19.3639 13.13 20.3633 11.8976 21.2287C11.4997 21.511 11.015 21.9807 10.8341 22.2471L10.8311 22.238C10.8195 22.2584 10.8096 22.2797 10.8015 22.3016C10.792 22.3188 10.7791 22.3386 10.7731 22.3532C10.7391 22.4438 10.7223 22.54 10.7237 22.6368L10.7512 22.6626C10.7585 22.7515 10.7791 22.8516 10.8234 22.9612C10.9317 23.2276 11.2479 23.5525 11.6063 23.885C11.6063 23.885 15.3106 27.4983 15.7605 28.0143C17.8084 30.3789 18.6996 32.7095 18.7829 35.9232C18.8332 37.9878 18.4409 39.8032 17.4668 41.9096C15.7352 45.6891 12.0807 49.8605 6.44446 54.4891L6.52997 54.4603C6.4913 54.4912 6.44059 54.5351 6.40321 54.5643C5.7286 55.0971 4.72915 56.0961 4.22126 56.7291C3.46329 57.6782 2.86473 58.6854 2.60649 59.4597C2.14844 60.8584 2.37317 62.2733 3.25532 63.5804C4.38798 65.2455 6.64427 66.9449 9.27524 68.1012C10.6159 68.6928 12.8709 69.4504 14.5699 69.8745C17.3916 70.5908 22.8542 71.3651 25.859 71.4811C26.4666 71.5064 27.2822 71.5064 27.3157 71.4811C27.3823 71.4394 27.8489 70.5495 28.3903 69.4427C30.238 65.6709 31.5696 62.1324 32.2945 59.11C32.7272 57.2786 33.0683 54.8389 33.2931 51.9501C33.3515 51.1423 33.3764 48.4365 33.3266 47.5209C33.2514 46.0225 33.119 44.807 32.9106 43.6167C32.8947 43.5355 32.8846 43.4532 32.8806 43.3705C39.5742 41.3819 46.9606 39.5802 51.8672 38.8296L52.6251 38.7131L52.5082 38.5292C51.8422 37.4967 51.3846 36.856 50.835 36.1732C49.2366 34.1924 47.2974 32.5858 44.9243 31.2537C41.6608 29.4302 37.4395 28.0066 32.0947 26.9491C31.0875 26.7493 28.8741 26.3661 27.0759 26.0915L26.9083 25.7911C25.9256 24.0595 24.8437 21.9123 24.2108 20.4639C23.72 19.3398 23.2534 18.0409 22.9956 17.1084C22.8538 16.5421 22.8379 16.5086 22.7455 16.5ZM22.6123 16.9245H22.6209C22.6286 16.9331 22.6617 17.1669 22.6952 17.4414C22.837 18.6068 23.0953 19.7308 23.5035 20.9464C23.8111 21.8616 23.8111 21.8122 23.4532 21.7039C22.6041 21.4711 18.7997 20.8136 16.0437 20.4304C15.6024 20.3723 15.2277 20.3139 15.2277 20.3053C15.1946 20.2718 17.2172 19.2152 18.1079 18.7988C19.2483 18.2746 22.379 16.9662 22.6123 16.9245ZM14.5866 20.6551L14.9115 20.7634C16.6766 21.3628 21.1136 22.2127 23.5611 22.4125C23.8361 22.4374 24.069 22.4619 24.0767 22.4619C24.0853 22.4705 23.8532 22.5951 23.5529 22.7365C22.3713 23.3277 21.0715 24.0518 20.1725 24.6099C19.968 24.7371 19.7807 24.8445 19.6883 24.8884L18.8581 24.753L18.0744 23.9852C17.062 22.9992 16.0437 22.0195 15.0193 21.0461L14.5866 20.6551ZM14.2536 20.9138L15.4275 22.379C16.0686 23.1868 16.7179 23.9774 16.8592 24.1523C16.9843 24.3066 17.0754 24.4196 17.0925 24.4531C16.2611 24.3083 15.3712 24.1489 14.6863 24.0011C14.1866 23.8928 13.2297 23.668 12.4803 23.4102C12.4029 23.3802 12.3149 23.3475 12.2311 23.3161V23.228C12.2397 22.6695 12.9469 21.8367 14.1453 20.9881L14.2536 20.9138ZM24.2108 22.9101C24.2176 22.9072 24.2234 22.9078 24.2279 22.9118C24.261 22.9118 24.3018 22.9857 24.4015 23.2104C24.6851 23.8348 25.5681 25.5166 25.7847 25.8414L25.8122 25.8861C24.2388 25.637 22.6665 25.3807 21.0955 25.117C21.1463 25.0799 21.1997 25.0466 21.2554 25.0173C22.1298 24.5343 23.0119 23.9186 23.7948 23.2607C23.986 23.1026 24.1605 22.9535 24.1944 22.9286C24.1979 22.9209 24.2036 22.9145 24.2108 22.9101ZM12.9796 24.3173C12.9877 24.3096 13.1209 24.3603 13.2958 24.4183C13.6946 24.552 14.0973 24.6739 14.5032 24.7839C14.8686 24.8844 15.2348 24.9816 15.602 25.0753C16.1013 25.1999 16.5181 25.3172 16.5258 25.3172C16.5847 25.3756 17.4256 28.0646 17.7087 29.0971C17.817 29.4882 17.9004 29.8212 17.8922 29.8212C17.8836 29.8298 17.7916 29.688 17.6834 29.4963C16.7093 27.7819 15.1693 26.0416 13.3874 24.6421C13.1545 24.4759 12.9791 24.3259 12.9791 24.3173H12.9796ZM17.0672 25.4422C17.0672 25.4586 17.0672 25.4508 17.0758 25.4508C17.1179 25.4508 17.3009 25.4753 17.5257 25.5252C18.9406 25.8414 21.4801 26.3244 23.103 26.5994C23.378 26.6411 23.5941 26.6913 23.5941 26.7077C23.5941 26.7248 23.4953 26.7829 23.3699 26.8495C23.0949 26.9913 21.9875 27.6487 21.621 27.8979C20.6972 28.5145 19.8649 29.1796 19.2655 29.7791C19.1169 29.9277 18.9669 30.0749 18.8156 30.2208C18.8156 30.2208 18.7662 30.079 18.7241 29.9041C18.4246 28.7465 17.8002 27.0321 17.2335 25.8246C17.142 25.6334 17.0672 25.4586 17.0672 25.4422ZM24.2859 26.8237C24.3354 26.8409 24.4191 27.124 24.5854 27.7484C24.8977 28.994 25.0322 30.2776 24.985 31.561C24.9679 31.9107 24.9511 32.2356 24.9343 32.2777L24.9099 32.3598L24.4772 32.218C23.5864 31.9352 22.1379 31.5111 20.8979 31.1614C20.1897 30.9697 19.6152 30.7953 19.6152 30.7789C19.6152 30.7287 20.6478 29.6961 21.0891 29.3051C21.9295 28.5639 24.2103 26.7992 24.2859 26.8237ZM24.8596 26.9075C24.8845 26.8825 28.3074 27.4729 29.8641 27.7729C31.0217 27.9976 32.7031 28.3478 32.8032 28.3895C32.8526 28.4066 32.6782 28.505 32.12 28.7555C29.9222 29.746 28.2898 30.6376 26.6664 31.7195C26.2419 32.0031 25.8835 32.2356 25.8758 32.2356C25.8672 32.2356 25.859 31.9941 25.859 31.7028C25.859 30.1211 25.5436 28.5227 24.9606 27.1739C24.9021 27.0407 24.8514 26.9156 24.8596 26.9075ZM33.7094 28.6554C33.7343 28.6799 33.6265 29.3554 33.5264 29.755C33.2265 30.9955 32.4195 32.8359 31.4295 34.5675C31.2538 34.8752 31.0952 35.1248 31.0784 35.133C31.0617 35.1411 30.8387 35.0157 30.58 34.8657C29.6145 34.2994 28.5149 33.7679 27.3161 33.2681C26.9831 33.1263 26.6913 33.0099 26.6832 32.9927C26.6247 32.9433 29.306 31.17 30.7209 30.3205C31.8454 29.6377 33.6768 28.6223 33.7094 28.6554ZM34.3432 28.7555C34.418 28.7555 35.9331 29.1715 36.7237 29.4048C38.6805 29.9875 40.9277 30.812 42.393 31.478L43.0006 31.7522L42.5769 31.8523C38.9976 32.6764 35.9326 33.6265 32.9768 34.8249C32.7353 34.925 32.5188 35.0075 32.5024 35.0075C32.4861 35.0075 32.5699 34.8167 32.6782 34.5838C33.5689 32.6936 34.1425 30.7205 34.2843 29.0383C34.2925 28.8802 34.3183 28.7555 34.3432 28.7555ZM19.2569 32.2188C19.2818 32.1939 20.439 32.4689 21.0637 32.6438C22.0133 32.9102 24.0281 33.5848 24.0281 33.6338C24.0281 33.6424 23.8025 33.834 23.5361 34.0669C22.4456 34.9744 21.3963 35.9322 20.139 37.1478C19.7648 37.5057 19.449 37.7966 19.4322 37.7966C19.415 37.7966 19.4068 37.7472 19.415 37.6806C19.6062 36.282 19.5654 34.4837 19.299 32.6605C19.2732 32.4272 19.2487 32.227 19.2569 32.2188ZM43.5755 32.2442C43.5918 32.2609 43.0427 33.1259 42.6925 33.617C42.1932 34.3333 41.4606 35.2829 39.8041 37.3639C39.0742 38.2801 38.3471 39.1987 37.623 40.1195C37.29 40.5359 37.015 40.8856 37.006 40.8856C36.9982 40.8856 36.89 40.7352 36.7735 40.5526C35.8411 39.1536 34.7252 37.9302 33.4013 36.8315C33.1998 36.6606 32.9948 36.4939 32.7865 36.3314C32.6945 36.2648 32.6189 36.1982 32.6189 36.1896C32.6189 36.1651 34.0343 35.5571 35.1085 35.1244C36.9905 34.3582 39.5536 33.443 41.4773 32.8513C42.4845 32.5355 43.5587 32.2274 43.5755 32.2442ZM44.2166 32.4105C44.2497 32.4019 44.4499 32.5024 44.6909 32.6438C46.7143 33.8009 48.6956 35.2915 50.261 36.8229C50.7023 37.2561 51.7924 38.3874 51.7756 38.3956C51.7756 38.3956 51.3928 38.43 50.9433 38.463C47.4384 38.7295 42.9511 39.4698 38.6392 40.5105C38.347 40.5771 38.0892 40.6355 38.0725 40.6355C38.0557 40.6355 38.3801 40.3107 38.7883 39.9197C41.3192 37.4804 42.4763 35.9404 43.8415 33.1925C44.0331 32.7852 44.1998 32.4354 44.2166 32.4105ZM25.6764 34.3088C25.7924 34.3337 26.8744 34.8412 27.6904 35.2494C28.4397 35.6237 29.5642 36.2231 29.6222 36.2734C29.6308 36.2815 29.2312 36.4895 28.7397 36.7314C27.2719 37.4611 25.8357 38.2528 24.435 39.1041C24.0354 39.3456 23.7029 39.5454 23.6947 39.5454C23.6612 39.5454 23.6698 39.5119 23.8945 39.1041C24.6439 37.739 25.2437 36.1071 25.5849 34.5168C25.618 34.3922 25.6515 34.3088 25.6764 34.3088ZM24.5936 34.5082C24.6185 34.5331 24.3358 35.5575 24.1605 36.1152C23.8189 37.1723 23.2448 38.4957 22.6866 39.4952C22.5534 39.728 22.3536 40.0701 22.2454 40.2613L22.0374 40.5939L21.5716 40.1448C21.0302 39.6206 20.5889 39.2949 20.023 39.0032C19.7979 38.8871 19.6234 38.7875 19.6234 38.7711C19.6234 38.7041 21.0474 37.4137 22.1379 36.4813C22.92 35.8067 24.5687 34.4833 24.5936 34.5082ZM31.2125 37.2307L31.6207 37.4971C32.5531 38.1047 33.6514 38.9129 34.4923 39.6198C34.9667 40.0108 35.8824 40.8358 36.0658 41.0352L36.1659 41.1434L35.4913 41.3355C31.6783 42.3925 28.7311 43.3331 25.2927 44.5986C24.9094 44.7404 24.585 44.8564 24.5601 44.8564C24.5102 44.8564 24.4686 44.8976 25.3262 44.1066C27.5241 42.084 29.4727 39.8535 30.9216 37.6806L31.2125 37.2307ZM29.4723 37.6638C29.4895 37.681 28.3491 39.2868 27.6663 40.1943C26.8499 41.2766 25.401 43.0916 24.4015 44.2737C23.9856 44.7653 23.6281 45.1726 23.6109 45.1808C23.586 45.1894 23.5774 45.0648 23.5774 44.8731C23.5774 43.8659 23.32 42.7917 22.8706 41.8761C22.6789 41.4932 22.6458 41.4017 22.6879 41.36C22.8461 41.2182 25.2678 39.8368 26.7992 39.0126C27.8322 38.4626 29.4478 37.6475 29.4723 37.6638ZM18.9492 40.2445C18.9737 40.2445 19.1649 40.3446 19.3819 40.4611C19.8885 40.7372 20.3679 41.0606 20.8136 41.427C20.8308 41.4434 20.6143 41.6187 20.3311 41.8266C19.5405 42.3925 18.3416 43.3005 17.6421 43.8582C16.9095 44.4409 16.8846 44.4572 16.9675 44.3326C17.5175 43.4917 17.7925 43.0169 18.0838 42.4089C18.3519 41.8435 18.5853 41.2623 18.7829 40.6686C18.8495 40.428 18.9325 40.2445 18.9492 40.2445ZM21.7551 42.4415C21.7968 42.4338 21.8466 42.509 22.0709 42.842C22.5453 43.5497 22.9118 44.4993 23.0033 45.265L23.0201 45.4309L21.8797 45.8726C19.84 46.6632 17.9584 47.4461 16.6848 48.0296C16.2193 48.2475 15.7557 48.4692 15.2939 48.6948C14.8857 48.9027 14.5531 49.0613 14.5531 49.0531C14.5531 49.045 14.8109 48.8533 15.1272 48.62C17.6168 46.8136 19.7734 44.8319 21.3886 42.8506C21.5634 42.6426 21.7216 42.451 21.7379 42.4424L21.7551 42.4415ZM20.4647 42.7582V42.7591C20.4982 42.7921 19.5486 43.8659 18.8994 44.5238C17.2924 46.1635 15.7021 47.4461 13.729 48.6948C13.4789 48.8529 13.2546 48.9943 13.2297 49.0106C13.1716 49.0441 13.246 48.9607 14.1122 48.0202C14.6199 47.4754 15.1006 46.9061 15.5525 46.3143C15.8688 45.9061 15.9268 45.8477 16.3849 45.5237C17.6095 44.6402 20.4316 42.7251 20.4647 42.7582ZM31.6254 43.7465C31.7432 44.2007 31.9606 46.3787 32.0199 47.8204C32.0371 48.162 32.0281 48.3867 32.0109 48.3867C31.9447 48.3867 30.6045 47.5961 29.6476 46.9962C28.8183 46.4741 27.2504 45.4347 26.9921 45.2289C28.5287 44.7104 30.0733 44.2162 31.6254 43.7465ZM26.0966 45.5477C26.2058 45.595 26.3695 45.6852 26.6999 45.8893C28.4148 46.9636 30.7467 48.2621 31.7457 48.6952C32.0534 48.8284 32.0865 48.7781 31.3788 49.2615C29.8637 50.2936 27.974 51.309 25.6597 52.3329C25.2515 52.516 24.9099 52.6578 24.9017 52.6578C24.8845 52.6578 24.9348 52.4489 25.0014 52.1993C25.5587 50.1261 25.8762 48.0292 25.893 46.3474C25.8973 45.9276 25.899 45.72 25.9097 45.6139L26.0966 45.5477ZM24.8226 46.0011C24.863 46.2056 24.8316 47.8779 24.7681 48.3618C24.619 49.5889 24.3631 50.8006 24.0032 51.9832C23.9113 52.2913 23.827 52.5499 23.8107 52.5662C23.7772 52.6079 22.6368 51.492 22.2621 51.0589C21.6133 50.3095 21.1054 49.561 20.7307 48.8284C20.5571 48.4889 20.3066 47.8809 20.2774 47.7464C21.5015 47.2495 22.7323 46.7689 23.9693 46.3048C24.2344 46.2052 24.5463 46.1016 24.8226 46.0011ZM19.4073 48.1065C19.4275 48.1362 19.4773 48.247 19.5237 48.3867C19.7901 49.1107 20.3887 50.1763 20.9052 50.8591C21.4715 51.6085 22.2127 52.4081 22.8289 52.9323C23.0287 53.0986 23.2113 53.2572 23.2366 53.2821C23.2865 53.3324 23.3032 53.3238 21.9459 53.8403C20.3732 54.4397 18.6579 55.0391 16.6929 55.6716C16.2234 55.823 15.7544 55.9756 15.2857 56.1296C15.2105 56.1546 15.2367 56.1125 15.4529 55.7713C16.427 54.2485 17.9081 51.2596 18.7408 49.1446C18.8826 48.7781 19.024 48.4116 19.0489 48.3282C19.0605 48.2874 19.0773 48.2638 19.0932 48.2376L19.4073 48.1065ZM17.6842 48.837C17.6275 49.0046 17.2661 49.7612 16.8927 50.4926C16.0849 52.0665 15.2028 53.6151 14.0207 55.4967C13.8205 55.8211 13.6297 56.1211 13.6039 56.1541C13.5627 56.2126 13.5459 56.1962 13.4123 55.9384C13.1291 55.3798 12.8966 54.6644 12.7712 54.0066C12.6466 53.3573 12.6715 52.2251 12.8133 51.5255C12.8777 51.2175 12.9061 51.1014 12.968 51.0271C14.5201 50.2548 16.0928 49.5243 17.6842 48.8366V48.837ZM32.0697 49.3526V49.702C32.0697 51.5586 31.8699 54.1062 31.5786 55.9625C31.5288 56.2873 31.4871 56.5542 31.4789 56.5628C31.4789 56.5628 31.237 56.4957 30.9543 56.4124C29.6277 55.9911 28.3452 55.442 27.1249 54.7727C26.3171 54.3314 25.144 53.6065 25.1771 53.5734C25.1853 53.5648 25.5346 53.3822 25.942 53.1652C27.5743 52.3166 29.1393 51.4005 30.4966 50.4926C31.0045 50.1514 31.7698 49.6027 31.9361 49.4527L32.0697 49.3526ZM11.4241 51.8177C11.4559 51.8195 11.4465 51.8878 11.3975 52.1834C11.356 52.4786 11.3254 52.7753 11.3059 53.0728C11.2393 54.2889 11.4391 55.1891 12.0386 56.421C12.2053 56.7621 12.3385 57.0453 12.3299 57.0535C12.2719 57.1037 6.76028 58.7185 5.02864 59.1929C4.51259 59.3347 4.06313 59.4593 4.02962 59.4675C3.97118 59.4846 3.96302 59.4765 3.98794 59.3347C4.17958 58.1109 5.11243 56.5125 6.41137 55.1637C7.27676 54.2644 7.9677 53.7397 9.14977 53.0655C9.54552 52.8404 10.0375 52.5658 10.4633 52.3308C10.7804 52.1583 11.1007 51.9873 11.4241 51.8177ZM24.4097 54.1398H24.4106C24.4191 54.1312 24.6181 54.2395 24.8596 54.3804C26.6415 55.4134 29.1225 56.3711 31.237 56.8623L31.4282 56.9035L31.1622 57.0539C30.0554 57.6696 26.4163 59.1852 22.6952 60.5752C22.1538 60.775 21.6219 60.9748 21.5222 61.0165C21.4221 61.0582 21.3297 61.0831 21.3297 61.0745C21.3297 61.0659 21.4801 60.7746 21.6713 60.4166C22.712 58.4684 23.7609 56.0961 24.2941 54.4479C24.3607 54.2897 24.4011 54.1484 24.4097 54.1398ZM23.0863 54.572H23.0871C23.0957 54.5806 23.0287 54.7559 22.9453 54.9557C22.2209 56.7123 21.2717 58.6274 20.0561 60.775C19.7484 61.325 19.4902 61.7659 19.482 61.7659C19.4739 61.7659 19.2238 61.6155 18.9234 61.4328C17.1591 60.35 15.5934 59.018 14.5699 57.7277L14.4195 57.5446L15.1774 57.3366C17.8913 56.5959 20.1979 55.7966 22.4873 54.8144C22.8121 54.6812 23.0781 54.572 23.0863 54.572ZM31.3118 57.4449C31.3204 57.6366 30.8963 59.3514 30.5465 60.592C30.2552 61.6327 30.0051 62.4482 29.5466 63.8885C29.3472 64.5219 29.1728 65.0457 29.1642 65.0457C29.1556 65.0457 29.1062 65.0379 29.0559 65.0216C26.5835 64.5717 24.3689 63.947 22.2875 63.1146C21.7048 62.8813 20.8725 62.5066 20.8222 62.465C20.8059 62.4482 21.3052 62.2153 21.9381 61.9407C25.7263 60.2839 29.6553 58.4023 31.0045 57.5949C31.1627 57.4948 31.2868 57.4449 31.3118 57.4449ZM12.3222 58.0938C12.3393 58.1109 11.281 59.6342 9.79989 61.7074C9.28298 62.4319 8.68399 63.2805 8.45927 63.5968C8.19915 63.9635 7.94645 64.3354 7.7013 64.7122L7.35153 65.2541L6.97727 64.937C6.53598 64.5704 5.77028 63.7884 5.42868 63.3557C4.71282 62.465 4.22942 61.5235 4.03821 60.6659C3.94626 60.2663 3.94626 60.0669 4.02962 60.0428C5.50504 59.6903 6.98175 59.3431 8.45969 59.0013C9.45395 58.7723 10.4473 58.5393 11.4396 58.3022C11.9225 58.1857 12.314 58.0938 12.3222 58.0938ZM13.3874 58.502L13.6542 58.8014C14.853 60.1421 16.0763 61.1325 17.5583 61.9983C17.8247 62.1487 18.025 62.2815 18.0082 62.2901C17.9502 62.3313 12.8631 64.1377 10.5072 64.9541C9.7013 65.2395 8.89361 65.5197 8.08415 65.7946C8.07598 65.7946 8.00079 65.7443 7.91786 65.6863L7.76747 65.578L8.00938 65.2283C8.79141 64.0961 9.77411 62.856 11.9135 60.2748L13.3874 58.502ZM20.0316 63.2552C20.0398 63.2466 20.4054 63.3798 20.8557 63.5473C21.9381 63.9551 22.7949 64.2134 23.9439 64.5047C25.3593 64.8626 27.4076 65.212 28.6155 65.3125C28.7985 65.3284 28.8978 65.3452 28.8647 65.3701C28.8063 65.4032 27.5821 65.8118 26.6832 66.0945C25.251 66.5444 20.8807 67.8348 17.3173 68.8587C16.8992 68.9811 16.4802 69.1005 16.0604 69.2171C15.9771 69.2334 15.7021 69.1578 15.7021 69.1247C15.7021 69.1084 15.9019 68.8505 16.1434 68.5674C17.3422 67.1352 18.5329 65.5364 19.5237 64.0213C19.7987 63.6049 20.0316 63.2633 20.0316 63.2552ZM18.5655 63.2973H18.5664C18.5745 63.3059 17.9833 64.2542 16.9508 65.8861C16.5099 66.5771 16.0183 67.3608 15.8439 67.635C15.6772 67.9014 15.4266 68.3182 15.2853 68.5506L15.0447 68.9747L14.92 68.9421C14.6197 68.8583 12.5134 68.1175 11.9552 67.8928C11.2939 67.6297 10.6466 67.3325 10.016 67.0025C9.35001 66.6441 8.5177 66.1113 8.5843 66.0945C8.60063 66.0859 9.74102 65.7783 11.1147 65.4036C14.7606 64.4127 16.784 63.8387 18.1079 63.4223C18.3494 63.3471 18.5574 63.2887 18.5655 63.2973ZM28.9309 65.7276H28.9399C28.973 65.8114 27.6238 69.5574 27.1322 70.7395C27.0248 71.0059 26.9827 71.0729 26.9242 71.0643C26.7824 71.0557 24.8269 70.782 23.6363 70.6071C21.5634 70.2909 18.0825 69.6833 17.209 69.483L17.0096 69.4414L18.2497 69.1582C20.9138 68.5588 22.1959 68.2344 23.4949 67.8348C25.1724 67.3218 26.8112 66.6899 28.3989 65.9441C28.6567 65.8281 28.8724 65.7366 28.9309 65.7284V65.7276Z" fill="#665900"/>
</g>
<rect y="-10" width="77" height="124.119" fill="url(#paint0_linear_109_62)"/>
<defs>
<linearGradient id="paint0_linear_109_62" x1="85" y1="52.0597" x2="0" y2="52.0597" gradientUnits="userSpaceOnUse">
<stop stop-color="#FFE641" stop-opacity="0"/>
<stop offset="1" stop-color="#FFE641"/>
</linearGradient>
<clipPath id="clip0_109_62">
<rect width="55" height="55" fill="white" transform="translate(0 16.5)"/>
</clipPath>
</defs>
</svg>
