<svg width="75" height="88" viewBox="0 0 75 88" fill="none" xmlns="http://www.w3.org/2000/svg">
<g clip-path="url(#clip0_109_84)">
<path d="M43.426 42.8072C43.426 39.8922 42.3775 37.8744 41.4803 36.3035L41.2053 35.8566C40.1156 34.1035 39.1635 32.5635 39.1635 30.7691C39.1635 28.6035 40.8066 26.5822 43.1235 26.5822C43.1922 26.5822 43.2587 26.5856 43.3228 26.5925L43.4294 26.6028C39.0846 22.613 33.3988 20.402 27.5 20.4085C23.5907 20.408 19.7426 21.3794 16.302 23.2354C12.8614 25.0913 9.93608 27.7735 7.78939 31.0406C8.33939 31.0578 8.86533 31.0716 9.30877 31.0716C11.7735 31.0716 15.5925 30.7725 15.5925 30.7725C16.8644 30.6969 17.0156 32.5635 15.7438 32.7147C15.7438 32.7147 14.4685 32.866 13.0453 32.9381L21.6391 58.4925L26.7953 43.0031L23.1172 32.9347C21.8488 32.8591 20.6456 32.7113 20.6456 32.7113C19.3738 32.6356 19.525 30.69 20.7935 30.7656C20.7935 30.7656 24.6916 31.0647 27.0085 31.0647C29.4766 31.0647 33.2991 30.7656 33.2991 30.7656C34.571 30.69 34.7188 32.56 33.4469 32.7113C33.4469 32.7113 32.1681 32.8591 30.7485 32.9347L39.2735 58.2931L41.6247 50.4316L41.8103 49.8369C42.7385 46.8806 43.4225 44.6978 43.4225 42.8038L43.426 42.8072ZM3.90846 44C3.9066 48.4304 5.15288 52.7717 7.50449 56.5265C9.8561 60.2813 13.2179 63.2977 17.2047 65.23L5.94689 34.3956C4.59513 37.4167 3.90033 40.6904 3.90846 44Z" fill="#665900"/>
<path d="M20.8347 66.629L27.916 46.0625L35.1657 65.9312C35.2115 66.0458 35.2676 66.1535 35.3341 66.2544C30.6608 67.9018 25.5869 68.0329 20.8347 66.629ZM48.1972 32.6803C48.3026 33.432 48.3565 34.2409 48.3588 35.1072C48.3588 37.4997 47.9119 40.1912 46.5644 43.5565L39.3594 64.3878C44.6762 61.2987 48.5761 56.255 50.2277 50.3319C51.8793 44.4088 51.1519 38.0748 48.2007 32.6803H48.1972Z" fill="#665900"/>
<path fill-rule="evenodd" clip-rule="evenodd" d="M0 44C0 28.8372 12.3372 16.5 27.5 16.5C42.6628 16.5 55 28.8372 55 44C55 59.1628 42.6594 71.5 27.5 71.5C12.3406 71.5 0 59.1628 0 44ZM1.26156 44C1.26156 58.4684 13.0316 70.2384 27.5 70.2384C41.9684 70.2384 53.735 58.4684 53.735 44C53.735 29.5281 41.965 17.7616 27.5 17.7616C13.0281 17.7616 1.26156 29.5281 1.26156 44Z" fill="#665900"/>
</g>
<rect y="-10" width="75" height="108" fill="url(#paint0_linear_109_84)"/>
<defs>
<linearGradient id="paint0_linear_109_84" x1="82.7922" y1="44" x2="0" y2="44" gradientUnits="userSpaceOnUse">
<stop stop-color="#FFE641" stop-opacity="0"/>
<stop offset="1" stop-color="#FFE641"/>
</linearGradient>
<clipPath id="clip0_109_84">
<rect width="55" height="55" fill="white" transform="translate(0 16.5)"/>
</clipPath>
</defs>
</svg>
